<?xml version="1.0" encoding="UTF-8"?>
<svg xmlns="http://www.w3.org/2000/svg" xmlns:xlink="http://www.w3.org/1999/xlink" width="329.36875pt" height="294.156625pt" viewBox="0 0 329.36875 294.156625">
<defs>
<g>
<g id="glyph-0-0">
<path d="M 4.199219 -2.933594 C 4.003906 -2.710938 3.769531 -2.546875 3.519531 -2.441406 C 3.265625 -2.332031 2.980469 -2.28125 2.664062 -2.28125 C 2.011719 -2.28125 1.5 -2.46875 1.121094 -2.863281 C 0.746094 -3.257812 0.566406 -3.789062 0.566406 -4.46875 C 0.566406 -5.132812 0.761719 -5.664062 1.175781 -6.058594 C 1.578125 -6.453125 2.125 -6.660156 2.808594 -6.660156 C 3.542969 -6.660156 4.121094 -6.378906 4.515625 -5.832031 C 4.910156 -5.277344 5.105469 -4.496094 5.105469 -3.472656 C 5.105469 -2.324219 4.863281 -1.445312 4.398438 -0.816406 C 3.929688 -0.1875 3.265625 0.117188 2.414062 0.117188 C 2.179688 0.117188 1.9375 0.0898438 1.6875 0.0546875 C 1.4375 0.0195312 1.175781 -0.0429688 0.90625 -0.132812 L 0.90625 -1.21875 L 1.398438 -1.21875 C 1.4375 -0.925781 1.542969 -0.699219 1.742188 -0.539062 C 1.929688 -0.375 2.179688 -0.304688 2.503906 -0.304688 C 3.070312 -0.304688 3.492188 -0.511719 3.769531 -0.941406 C 4.039062 -1.375 4.183594 -2.039062 4.199219 -2.933594 Z M 2.773438 -6.226562 C 2.359375 -6.226562 2.039062 -6.074219 1.820312 -5.769531 C 1.597656 -5.464844 1.488281 -5.035156 1.488281 -4.46875 C 1.488281 -3.894531 1.597656 -3.464844 1.820312 -3.160156 C 2.039062 -2.855469 2.359375 -2.710938 2.773438 -2.710938 C 3.1875 -2.710938 3.5 -2.855469 3.722656 -3.148438 C 3.941406 -3.4375 4.054688 -3.859375 4.054688 -4.414062 C 4.054688 -4.988281 3.941406 -5.4375 3.722656 -5.753906 C 3.5 -6.066406 3.1875 -6.226562 2.773438 -6.226562 Z M 2.773438 -6.226562 "/>
</g>
<g id="glyph-0-1">
<path d="M 4.183594 -1.785156 C 4.183594 -2.253906 4.066406 -2.613281 3.832031 -2.871094 C 3.597656 -3.132812 3.265625 -3.265625 2.855469 -3.265625 C 2.433594 -3.265625 2.109375 -3.132812 1.875 -2.871094 C 1.640625 -2.613281 1.527344 -2.253906 1.527344 -1.785156 C 1.527344 -1.320312 1.640625 -0.953125 1.875 -0.691406 C 2.109375 -0.429688 2.433594 -0.304688 2.855469 -0.304688 C 3.265625 -0.304688 3.597656 -0.429688 3.832031 -0.691406 C 4.066406 -0.953125 4.183594 -1.320312 4.183594 -1.785156 Z M 4.003906 -4.960938 C 4.003906 -5.359375 3.894531 -5.671875 3.699219 -5.894531 C 3.492188 -6.113281 3.210938 -6.226562 2.855469 -6.226562 C 2.496094 -6.226562 2.207031 -6.113281 2.011719 -5.894531 C 1.804688 -5.671875 1.707031 -5.359375 1.707031 -4.960938 C 1.707031 -4.558594 1.804688 -4.246094 2.011719 -4.03125 C 2.207031 -3.804688 2.496094 -3.699219 2.855469 -3.699219 C 3.210938 -3.699219 3.492188 -3.804688 3.699219 -4.03125 C 3.894531 -4.246094 4.003906 -4.558594 4.003906 -4.960938 Z M 3.527344 -3.480469 C 4.019531 -3.410156 4.40625 -3.230469 4.683594 -2.933594 C 4.960938 -2.628906 5.105469 -2.253906 5.105469 -1.785156 C 5.105469 -1.175781 4.910156 -0.699219 4.523438 -0.375 C 4.128906 -0.0429688 3.570312 0.117188 2.855469 0.117188 C 2.125 0.117188 1.570312 -0.0429688 1.183594 -0.375 C 0.789062 -0.699219 0.601562 -1.175781 0.601562 -1.785156 C 0.601562 -2.253906 0.734375 -2.628906 1.015625 -2.933594 C 1.292969 -3.230469 1.679688 -3.410156 2.179688 -3.480469 C 1.730469 -3.554688 1.398438 -3.722656 1.167969 -3.984375 C 0.933594 -4.234375 0.816406 -4.566406 0.816406 -4.960938 C 0.816406 -5.484375 0.996094 -5.894531 1.355469 -6.203125 C 1.714844 -6.507812 2.214844 -6.660156 2.855469 -6.660156 C 3.480469 -6.660156 3.984375 -6.507812 4.34375 -6.203125 C 4.703125 -5.894531 4.890625 -5.484375 4.890625 -4.960938 C 4.890625 -4.566406 4.765625 -4.234375 4.53125 -3.984375 C 4.296875 -3.722656 3.957031 -3.554688 3.527344 -3.480469 Z M 3.527344 -3.480469 "/>
</g>
<g id="glyph-0-2">
<path d="M 5.0625 -6.09375 L 2.503906 0 L 1.847656 0 L 4.289062 -5.824219 L 1.265625 -5.824219 L 1.265625 -5.015625 L 0.753906 -5.015625 L 0.753906 -6.542969 L 5.0625 -6.542969 Z M 5.0625 -6.09375 "/>
</g>
<g id="glyph-0-3">
<path d="M 2.933594 -0.304688 C 3.347656 -0.304688 3.660156 -0.449219 3.886719 -0.753906 C 4.101562 -1.058594 4.21875 -1.488281 4.21875 -2.0625 C 4.21875 -2.628906 4.101562 -3.058594 3.886719 -3.367188 C 3.660156 -3.671875 3.347656 -3.824219 2.933594 -3.824219 C 2.511719 -3.824219 2.191406 -3.671875 1.972656 -3.382812 C 1.757812 -3.085938 1.652344 -2.664062 1.652344 -2.117188 C 1.652344 -1.535156 1.757812 -1.085938 1.984375 -0.773438 C 2.199219 -0.457031 2.523438 -0.304688 2.933594 -0.304688 Z M 1.507812 -3.597656 C 1.707031 -3.8125 1.929688 -3.984375 2.179688 -4.09375 C 2.433594 -4.199219 2.710938 -4.253906 3.035156 -4.253906 C 3.679688 -4.253906 4.199219 -4.054688 4.578125 -3.660156 C 4.953125 -3.265625 5.140625 -2.738281 5.140625 -2.0625 C 5.140625 -1.398438 4.9375 -0.871094 4.53125 -0.476562 C 4.121094 -0.0820312 3.582031 0.117188 2.898438 0.117188 C 2.164062 0.117188 1.589844 -0.152344 1.195312 -0.699219 C 0.796875 -1.246094 0.601562 -2.039062 0.601562 -3.058594 C 0.601562 -4.199219 0.835938 -5.089844 1.300781 -5.714844 C 1.769531 -6.34375 2.433594 -6.660156 3.292969 -6.660156 C 3.527344 -6.660156 3.769531 -6.632812 4.019531 -6.597656 C 4.273438 -6.550781 4.53125 -6.488281 4.800781 -6.398438 L 4.800781 -5.320312 L 4.308594 -5.320312 C 4.273438 -5.609375 4.15625 -5.832031 3.964844 -5.996094 C 3.777344 -6.148438 3.527344 -6.226562 3.203125 -6.226562 C 2.628906 -6.226562 2.207031 -6.011719 1.929688 -5.582031 C 1.652344 -5.152344 1.507812 -4.488281 1.507812 -3.597656 Z M 1.507812 -3.597656 "/>
</g>
<g id="glyph-0-4">
<path d="M 4.515625 -6.542969 L 4.515625 -5.824219 L 1.515625 -5.824219 L 1.515625 -3.949219 C 1.660156 -4.054688 1.839844 -4.128906 2.046875 -4.183594 C 2.242188 -4.234375 2.476562 -4.261719 2.726562 -4.261719 C 3.429688 -4.261719 3.984375 -4.066406 4.398438 -3.671875 C 4.808594 -3.277344 5.015625 -2.746094 5.015625 -2.074219 C 5.015625 -1.375 4.808594 -0.835938 4.398438 -0.457031 C 3.984375 -0.0703125 3.402344 0.117188 2.65625 0.117188 C 2.351562 0.117188 2.046875 0.0820312 1.730469 0.0078125 C 1.410156 -0.0546875 1.085938 -0.160156 0.761719 -0.3125 L 0.761719 -1.589844 L 1.257812 -1.589844 C 1.285156 -1.167969 1.417969 -0.84375 1.652344 -0.628906 C 1.882812 -0.414062 2.226562 -0.304688 2.65625 -0.304688 C 3.113281 -0.304688 3.464844 -0.457031 3.714844 -0.761719 C 3.964844 -1.066406 4.09375 -1.5 4.09375 -2.074219 C 4.09375 -2.636719 3.964844 -3.070312 3.722656 -3.375 C 3.472656 -3.679688 3.121094 -3.832031 2.65625 -3.832031 C 2.386719 -3.832031 2.152344 -3.777344 1.957031 -3.6875 C 1.757812 -3.597656 1.578125 -3.457031 1.425781 -3.257812 L 1.050781 -3.257812 L 1.050781 -6.542969 Z M 4.515625 -6.542969 "/>
</g>
<g id="glyph-0-5">
<path d="M 3.132812 -2.214844 L 3.132812 -5.699219 L 0.898438 -2.214844 Z M 5.0625 0 L 2.082031 0 L 2.082031 -0.464844 L 3.132812 -0.464844 L 3.132812 -1.75 L 0.277344 -1.75 L 0.277344 -2.226562 L 3.140625 -6.660156 L 4.011719 -6.660156 L 4.011719 -2.214844 L 5.257812 -2.214844 L 5.257812 -1.75 L 4.011719 -1.75 L 4.011719 -0.464844 L 5.0625 -0.464844 Z M 5.0625 0 "/>
</g>
<g id="glyph-0-6">
<path d="M 0.871094 -6.265625 C 1.210938 -6.390625 1.535156 -6.488281 1.847656 -6.558594 C 2.164062 -6.621094 2.457031 -6.660156 2.738281 -6.660156 C 3.375 -6.660156 3.875 -6.515625 4.234375 -6.246094 C 4.59375 -5.96875 4.773438 -5.582031 4.773438 -5.097656 C 4.773438 -4.703125 4.648438 -4.371094 4.398438 -4.109375 C 4.144531 -3.839844 3.796875 -3.660156 3.347656 -3.570312 C 3.886719 -3.492188 4.296875 -3.292969 4.59375 -2.980469 C 4.890625 -2.664062 5.042969 -2.261719 5.042969 -1.769531 C 5.042969 -1.15625 4.835938 -0.691406 4.425781 -0.367188 C 4.011719 -0.0429688 3.429688 0.117188 2.65625 0.117188 C 2.316406 0.117188 1.972656 0.0820312 1.652344 0.0078125 C 1.328125 -0.0546875 1.003906 -0.160156 0.683594 -0.3125 L 0.683594 -1.589844 L 1.175781 -1.589844 C 1.203125 -1.15625 1.347656 -0.84375 1.597656 -0.628906 C 1.847656 -0.414062 2.207031 -0.304688 2.675781 -0.304688 C 3.121094 -0.304688 3.472656 -0.429688 3.734375 -0.691406 C 3.984375 -0.953125 4.121094 -1.308594 4.121094 -1.757812 C 4.121094 -2.269531 3.984375 -2.65625 3.714844 -2.925781 C 3.445312 -3.1875 3.058594 -3.320312 2.546875 -3.320312 L 2.136719 -3.320312 L 2.136719 -3.769531 L 2.351562 -3.769531 C 2.863281 -3.769531 3.25 -3.867188 3.5 -4.082031 C 3.75 -4.296875 3.886719 -4.613281 3.886719 -5.042969 C 3.886719 -5.421875 3.777344 -5.714844 3.570312 -5.921875 C 3.355469 -6.121094 3.058594 -6.226562 2.664062 -6.226562 C 2.269531 -6.226562 1.957031 -6.128906 1.742188 -5.941406 C 1.527344 -5.753906 1.398438 -5.472656 1.363281 -5.117188 L 0.871094 -5.117188 Z M 0.871094 -6.265625 "/>
</g>
<g id="glyph-0-7">
<path d="M 1.273438 0 L 1.273438 -0.464844 L 2.414062 -0.464844 L 2.414062 -5.90625 L 1.09375 -5.050781 L 1.09375 -5.625 L 2.691406 -6.660156 L 3.292969 -6.660156 L 3.292969 -0.464844 L 4.433594 -0.464844 L 4.433594 0 Z M 1.273438 0 "/>
</g>
<g id="glyph-0-8">
<path d="M 0.84375 -0.457031 C 0.84375 -0.621094 0.898438 -0.753906 1.003906 -0.871094 C 1.113281 -0.976562 1.257812 -1.039062 1.425781 -1.039062 C 1.589844 -1.039062 1.722656 -0.976562 1.839844 -0.871094 C 1.949219 -0.753906 2.011719 -0.621094 2.011719 -0.457031 C 2.011719 -0.296875 1.949219 -0.152344 1.839844 -0.0429688 C 1.722656 0.0625 1.589844 0.117188 1.425781 0.117188 C 1.257812 0.117188 1.113281 0.0625 1.003906 -0.0429688 C 0.898438 -0.152344 0.84375 -0.289062 0.84375 -0.457031 Z M 0.84375 -0.457031 "/>
</g>
<g id="glyph-0-9">
<path d="M 1.148438 -4.980469 L 0.65625 -4.980469 L 0.65625 -6.148438 C 0.960938 -6.308594 1.273438 -6.433594 1.597656 -6.523438 C 1.910156 -6.613281 2.226562 -6.660156 2.53125 -6.660156 C 3.210938 -6.660156 3.75 -6.488281 4.144531 -6.164062 C 4.539062 -5.832031 4.738281 -5.382812 4.738281 -4.820312 C 4.738281 -4.171875 4.289062 -3.410156 3.390625 -2.523438 C 3.320312 -2.449219 3.277344 -2.40625 3.238281 -2.371094 L 1.589844 -0.71875 L 4.316406 -0.71875 L 4.316406 -1.527344 L 4.828125 -1.527344 L 4.828125 0 L 0.609375 0 L 0.609375 -0.476562 L 2.59375 -2.457031 C 3.023438 -2.890625 3.339844 -3.292969 3.527344 -3.660156 C 3.714844 -4.03125 3.8125 -4.414062 3.8125 -4.820312 C 3.8125 -5.257812 3.699219 -5.601562 3.464844 -5.851562 C 3.230469 -6.101562 2.917969 -6.226562 2.523438 -6.226562 C 2.101562 -6.226562 1.777344 -6.121094 1.550781 -5.914062 C 1.320312 -5.707031 1.183594 -5.394531 1.148438 -4.980469 Z M 1.148438 -4.980469 "/>
</g>
<g id="glyph-0-10">
<path d="M 2.855469 -0.304688 C 3.300781 -0.304688 3.632812 -0.546875 3.859375 -1.039062 C 4.074219 -1.527344 4.191406 -2.269531 4.191406 -3.265625 C 4.191406 -4.253906 4.074219 -5 3.859375 -5.492188 C 3.632812 -5.976562 3.300781 -6.226562 2.855469 -6.226562 C 2.40625 -6.226562 2.0625 -5.976562 1.847656 -5.492188 C 1.625 -5 1.515625 -4.253906 1.515625 -3.265625 C 1.515625 -2.269531 1.625 -1.527344 1.847656 -1.039062 C 2.0625 -0.546875 2.40625 -0.304688 2.855469 -0.304688 Z M 2.855469 0.117188 C 2.136719 0.117188 1.578125 -0.179688 1.183594 -0.773438 C 0.789062 -1.363281 0.59375 -2.191406 0.59375 -3.265625 C 0.59375 -4.335938 0.789062 -5.167969 1.183594 -5.761719 C 1.578125 -6.355469 2.136719 -6.660156 2.855469 -6.660156 C 3.5625 -6.660156 4.121094 -6.355469 4.515625 -5.761719 C 4.910156 -5.167969 5.117188 -4.335938 5.117188 -3.265625 C 5.117188 -2.191406 4.910156 -1.363281 4.515625 -0.773438 C 4.121094 -0.179688 3.5625 0.117188 2.855469 0.117188 Z M 2.855469 0.117188 "/>
</g>
<g id="glyph-1-0">
<path d="M 1.03125 -8.335938 L 2.019531 -8.335938 L 2.019531 0 L 1.03125 0 Z M 1.03125 -8.335938 "/>
</g>
<g id="glyph-1-1">
<path d="M 3.355469 -5.308594 C 2.828125 -5.308594 2.414062 -5.101562 2.105469 -4.683594 C 1.800781 -4.265625 1.644531 -3.707031 1.644531 -2.996094 C 1.644531 -2.269531 1.789062 -1.710938 2.09375 -1.292969 C 2.402344 -0.878906 2.820312 -0.679688 3.355469 -0.679688 C 3.882812 -0.679688 4.300781 -0.878906 4.605469 -1.292969 C 4.914062 -1.710938 5.066406 -2.269531 5.066406 -2.996094 C 5.066406 -3.695312 4.914062 -4.265625 4.605469 -4.683594 C 4.300781 -5.101562 3.882812 -5.308594 3.355469 -5.308594 Z M 3.355469 -6.140625 C 4.210938 -6.140625 4.882812 -5.855469 5.375 -5.308594 C 5.855469 -4.75 6.109375 -3.980469 6.109375 -2.996094 C 6.109375 -2.007812 5.855469 -1.238281 5.375 -0.691406 C 4.882812 -0.132812 4.210938 0.144531 3.355469 0.144531 C 2.488281 0.144531 1.808594 -0.132812 1.328125 -0.691406 C 0.84375 -1.238281 0.601562 -2.007812 0.601562 -2.996094 C 0.601562 -3.980469 0.84375 -4.75 1.328125 -5.308594 C 1.808594 -5.855469 2.488281 -6.140625 3.355469 -6.140625 Z M 3.355469 -6.140625 "/>
</g>
<g id="glyph-1-2">
<path d="M 4.980469 -3.070312 C 4.980469 -3.773438 4.824219 -4.332031 4.539062 -4.726562 C 4.246094 -5.121094 3.828125 -5.320312 3.300781 -5.320312 C 2.773438 -5.320312 2.359375 -5.121094 2.0625 -4.726562 C 1.765625 -4.332031 1.625 -3.773438 1.625 -3.070312 C 1.625 -2.359375 1.765625 -1.808594 2.0625 -1.414062 C 2.359375 -1.019531 2.773438 -0.824219 3.300781 -0.824219 C 3.828125 -0.824219 4.246094 -1.019531 4.539062 -1.414062 C 4.824219 -1.808594 4.980469 -2.359375 4.980469 -3.070312 Z M 5.96875 -0.746094 C 5.96875 0.261719 5.738281 1.019531 5.285156 1.523438 C 4.824219 2.019531 4.136719 2.269531 3.203125 2.269531 C 2.851562 2.269531 2.535156 2.238281 2.226562 2.195312 C 1.917969 2.140625 1.613281 2.0625 1.328125 1.953125 L 1.328125 1 C 1.613281 1.152344 1.898438 1.261719 2.183594 1.339844 C 2.46875 1.414062 2.753906 1.457031 3.050781 1.457031 C 3.683594 1.457031 4.167969 1.285156 4.496094 0.953125 C 4.816406 0.613281 4.980469 0.109375 4.980469 -0.570312 L 4.980469 -1.054688 C 4.769531 -0.703125 4.507812 -0.4375 4.191406 -0.261719 C 3.871094 -0.0859375 3.5 0 3.058594 0 C 2.3125 0 1.722656 -0.273438 1.273438 -0.832031 C 0.824219 -1.394531 0.601562 -2.140625 0.601562 -3.070312 C 0.601562 -3.992188 0.824219 -4.738281 1.273438 -5.296875 C 1.722656 -5.855469 2.3125 -6.140625 3.058594 -6.140625 C 3.5 -6.140625 3.871094 -6.054688 4.191406 -5.878906 C 4.507812 -5.703125 4.769531 -5.441406 4.980469 -5.089844 L 4.980469 -6 L 5.96875 -6 Z M 5.96875 -0.746094 "/>
</g>
<g id="glyph-1-3">
<path d="M 3.398438 -8.324219 C 2.917969 -7.492188 2.566406 -6.679688 2.335938 -5.878906 C 2.09375 -5.078125 1.984375 -4.265625 1.984375 -3.445312 C 1.984375 -2.609375 2.09375 -1.800781 2.335938 -1 C 2.566406 -0.1875 2.917969 0.613281 3.398438 1.4375 L 2.542969 1.4375 C 2.007812 0.59375 1.601562 -0.21875 1.339844 -1.03125 C 1.074219 -1.84375 0.941406 -2.644531 0.941406 -3.445312 C 0.941406 -4.234375 1.074219 -5.035156 1.339844 -5.847656 C 1.601562 -6.65625 1.996094 -7.480469 2.542969 -8.324219 Z M 3.398438 -8.324219 "/>
</g>
<g id="glyph-1-4">
<path d="M 4.507812 -5.078125 C 4.398438 -5.144531 4.277344 -5.1875 4.144531 -5.222656 C 4.015625 -5.242188 3.871094 -5.265625 3.71875 -5.265625 C 3.160156 -5.265625 2.730469 -5.078125 2.433594 -4.714844 C 2.128906 -4.355469 1.984375 -3.839844 1.984375 -3.160156 L 1.984375 0 L 1 0 L 1 -6 L 1.984375 -6 L 1.984375 -5.066406 C 2.183594 -5.429688 2.457031 -5.703125 2.785156 -5.878906 C 3.113281 -6.054688 3.519531 -6.140625 4.003906 -6.140625 C 4.070312 -6.140625 4.144531 -6.132812 4.234375 -6.132812 C 4.3125 -6.121094 4.398438 -6.109375 4.507812 -6.085938 Z M 4.507812 -5.078125 "/>
</g>
<g id="glyph-1-5">
<path d="M 0.878906 -8.324219 L 1.734375 -8.324219 C 2.257812 -7.480469 2.664062 -6.65625 2.929688 -5.847656 C 3.191406 -5.035156 3.335938 -4.234375 3.335938 -3.445312 C 3.335938 -2.644531 3.191406 -1.84375 2.929688 -1.03125 C 2.664062 -0.21875 2.257812 0.59375 1.734375 1.4375 L 0.878906 1.4375 C 1.347656 0.613281 1.699219 -0.1875 1.941406 -1 C 2.171875 -1.800781 2.292969 -2.609375 2.292969 -3.445312 C 2.292969 -4.265625 2.171875 -5.078125 1.941406 -5.878906 C 1.699219 -6.679688 1.347656 -7.492188 0.878906 -8.324219 Z M 0.878906 -8.324219 "/>
</g>
<g id="glyph-2-0">
<path d="M 1.472656 -0.636719 L 4.117188 -0.636719 L 4.117188 0 L 0.558594 0 L 0.558594 -0.636719 C 0.84375 -0.929688 1.234375 -1.328125 1.734375 -1.835938 C 2.226562 -2.335938 2.542969 -2.65625 2.671875 -2.800781 C 2.917969 -3.070312 3.085938 -3.300781 3.179688 -3.492188 C 3.269531 -3.679688 3.324219 -3.871094 3.324219 -4.054688 C 3.324219 -4.347656 3.21875 -4.589844 3.011719 -4.777344 C 2.800781 -4.960938 2.535156 -5.058594 2.195312 -5.058594 C 1.957031 -5.058594 1.703125 -5.015625 1.445312 -4.9375 C 1.183594 -4.851562 0.898438 -4.730469 0.597656 -4.5625 L 0.597656 -5.328125 C 0.90625 -5.453125 1.191406 -5.542969 1.449219 -5.605469 C 1.710938 -5.667969 1.957031 -5.695312 2.179688 -5.695312 C 2.757812 -5.695312 3.21875 -5.550781 3.5625 -5.257812 C 3.90625 -4.96875 4.085938 -4.582031 4.085938 -4.101562 C 4.085938 -3.871094 4.039062 -3.648438 3.953125 -3.449219 C 3.871094 -3.238281 3.714844 -2.996094 3.484375 -2.71875 C 3.425781 -2.640625 3.226562 -2.433594 2.886719 -2.089844 C 2.550781 -1.742188 2.082031 -1.257812 1.472656 -0.636719 Z M 1.472656 -0.636719 "/>
</g>
<g id="glyph-3-0">
<path d="M -0.570312 -2.25 L -0.570312 -3.179688 L 0 -3.179688 L 0 -0.316406 L -0.570312 -0.316406 L -0.570312 -1.261719 L -7.765625 -1.261719 L -7.765625 -0.316406 L -8.335938 -0.316406 L -8.335938 -2.25 Z M -0.570312 -2.25 "/>
</g>
<g id="glyph-3-1">
<path d="M -0.371094 -3.300781 C -0.371094 -3.828125 -0.582031 -4.222656 -1 -4.496094 C -1.414062 -4.761719 -2.027344 -4.902344 -2.839844 -4.902344 C -3.652344 -4.902344 -4.277344 -4.761719 -4.695312 -4.496094 C -5.113281 -4.222656 -5.320312 -3.828125 -5.320312 -3.300781 C -5.320312 -2.773438 -5.113281 -2.371094 -4.695312 -2.105469 C -4.277344 -1.832031 -3.652344 -1.699219 -2.839844 -1.699219 C -2.027344 -1.699219 -1.414062 -1.832031 -1 -2.105469 C -0.582031 -2.371094 -0.371094 -2.773438 -0.371094 -3.300781 Z M 0.144531 -3.300781 C 0.144531 -2.46875 -0.121094 -1.808594 -0.667969 -1.304688 C -1.21875 -0.800781 -1.941406 -0.546875 -2.851562 -0.546875 C -3.75 -0.546875 -4.476562 -0.789062 -5.023438 -1.292969 C -5.570312 -1.800781 -5.847656 -2.46875 -5.847656 -3.300781 C -5.847656 -4.136719 -5.570312 -4.792969 -5.023438 -5.296875 C -4.476562 -5.800781 -3.75 -6.054688 -2.851562 -6.054688 C -1.941406 -6.054688 -1.21875 -5.800781 -0.667969 -5.296875 C -0.121094 -4.792969 0.144531 -4.136719 0.144531 -3.300781 Z M 0.144531 -3.300781 "/>
</g>
<g id="glyph-3-2">
<path d="M -0.316406 -0.613281 L -1.644531 -0.613281 L -1.644531 -1.183594 C -1.21875 -1.195312 -0.898438 -1.328125 -0.691406 -1.578125 C -0.472656 -1.832031 -0.371094 -2.203125 -0.371094 -2.699219 C -0.371094 -3.136719 -0.449219 -3.476562 -0.625 -3.707031 C -0.789062 -3.9375 -1.03125 -4.058594 -1.347656 -4.058594 C -1.589844 -4.058594 -1.800781 -3.96875 -1.953125 -3.804688 C -2.105469 -3.628906 -2.269531 -3.28125 -2.445312 -2.730469 L -2.6875 -2.019531 C -2.839844 -1.523438 -3.039062 -1.171875 -3.28125 -0.953125 C -3.511719 -0.734375 -3.804688 -0.625 -4.179688 -0.625 C -4.695312 -0.625 -5.101562 -0.8125 -5.398438 -1.195312 C -5.691406 -1.578125 -5.847656 -2.105469 -5.847656 -2.785156 C -5.847656 -3.082031 -5.800781 -3.398438 -5.726562 -3.730469 C -5.648438 -4.058594 -5.539062 -4.410156 -5.386719 -4.761719 L -4.144531 -4.761719 L -4.144531 -4.191406 C -4.507812 -4.167969 -4.792969 -4.046875 -5 -3.804688 C -5.210938 -3.566406 -5.320312 -3.234375 -5.320312 -2.820312 C -5.320312 -2.402344 -5.242188 -2.085938 -5.101562 -1.875 C -4.945312 -1.65625 -4.726562 -1.558594 -4.441406 -1.558594 C -4.199219 -1.558594 -4.003906 -1.632812 -3.859375 -1.800781 C -3.71875 -1.953125 -3.574219 -2.28125 -3.421875 -2.765625 L -3.179688 -3.542969 C -3.003906 -4.082031 -2.796875 -4.464844 -2.542969 -4.707031 C -2.292969 -4.945312 -1.972656 -5.066406 -1.578125 -5.066406 C -1.03125 -5.066406 -0.613281 -4.859375 -0.308594 -4.441406 C 0 -4.027344 0.144531 -3.464844 0.144531 -2.742188 C 0.144531 -2.371094 0.0976562 -2.019531 0.03125 -1.667969 C -0.03125 -1.316406 -0.152344 -0.964844 -0.316406 -0.613281 Z M -0.316406 -0.613281 "/>
</g>
<g id="glyph-4-0">
<path d="M 5.234375 -0.519531 L 6.09375 -0.519531 L 6.09375 0 L 4.335938 0 L 4.335938 -0.808594 C 4.15625 -0.480469 3.9375 -0.238281 3.667969 -0.0898438 C 3.390625 0.0507812 3.0625 0.128906 2.664062 0.128906 C 2.023438 0.128906 1.496094 -0.121094 1.097656 -0.617188 C 0.699219 -1.117188 0.5 -1.773438 0.5 -2.59375 C 0.5 -3.398438 0.699219 -4.058594 1.097656 -4.558594 C 1.496094 -5.054688 2.023438 -5.316406 2.664062 -5.316406 C 3.0625 -5.316406 3.390625 -5.234375 3.667969 -5.085938 C 3.9375 -4.925781 4.15625 -4.6875 4.335938 -4.367188 L 4.335938 -7.058594 L 3.488281 -7.058594 L 3.488281 -7.578125 L 5.234375 -7.578125 Z M 4.335938 -2.332031 L 4.335938 -2.84375 C 4.335938 -3.460938 4.21875 -3.929688 3.980469 -4.257812 C 3.738281 -4.585938 3.390625 -4.757812 2.941406 -4.757812 C 2.484375 -4.757812 2.132812 -4.566406 1.894531 -4.207031 C 1.65625 -3.847656 1.546875 -3.308594 1.546875 -2.59375 C 1.546875 -1.875 1.65625 -1.328125 1.894531 -0.96875 C 2.132812 -0.597656 2.484375 -0.417969 2.941406 -0.417969 C 3.390625 -0.417969 3.738281 -0.578125 3.980469 -0.90625 C 4.21875 -1.226562 4.335938 -1.707031 4.335938 -2.332031 Z M 4.335938 -2.332031 "/>
</g>
<g id="glyph-4-1">
<path d="M 5.40625 -2.492188 L 1.546875 -2.492188 L 1.546875 -2.453125 C 1.546875 -1.753906 1.675781 -1.226562 1.933594 -0.867188 C 2.195312 -0.507812 2.582031 -0.339844 3.101562 -0.339844 C 3.488281 -0.339844 3.808594 -0.4375 4.066406 -0.648438 C 4.316406 -0.847656 4.496094 -1.15625 4.597656 -1.566406 L 5.316406 -1.566406 C 5.175781 -0.996094 4.90625 -0.570312 4.527344 -0.289062 C 4.136719 -0.0117188 3.628906 0.128906 3.011719 0.128906 C 2.253906 0.128906 1.644531 -0.109375 1.1875 -0.609375 C 0.726562 -1.105469 0.5 -1.765625 0.5 -2.59375 C 0.5 -3.410156 0.71875 -4.066406 1.175781 -4.566406 C 1.625 -5.066406 2.214844 -5.316406 2.953125 -5.316406 C 3.730469 -5.316406 4.335938 -5.066406 4.757812 -4.585938 C 5.175781 -4.109375 5.382812 -3.410156 5.40625 -2.492188 Z M 4.347656 -3.011719 C 4.328125 -3.609375 4.199219 -4.066406 3.957031 -4.378906 C 3.71875 -4.675781 3.390625 -4.835938 2.953125 -4.835938 C 2.53125 -4.835938 2.214844 -4.675781 1.972656 -4.367188 C 1.734375 -4.058594 1.59375 -3.609375 1.546875 -3.011719 Z M 4.347656 -3.011719 "/>
</g>
<g id="glyph-4-2">
<path d="M 2.042969 -2.84375 L 2.042969 -2.332031 C 2.042969 -1.707031 2.164062 -1.226562 2.402344 -0.90625 C 2.640625 -0.578125 2.980469 -0.417969 3.441406 -0.417969 C 3.898438 -0.417969 4.238281 -0.597656 4.476562 -0.96875 C 4.714844 -1.328125 4.835938 -1.875 4.835938 -2.59375 C 4.835938 -3.308594 4.714844 -3.847656 4.476562 -4.207031 C 4.238281 -4.566406 3.898438 -4.757812 3.441406 -4.757812 C 2.980469 -4.757812 2.640625 -4.585938 2.402344 -4.257812 C 2.164062 -3.929688 2.042969 -3.460938 2.042969 -2.84375 Z M 1.148438 -4.65625 L 0.289062 -4.65625 L 0.289062 -5.175781 L 2.042969 -5.175781 L 2.042969 -4.367188 C 2.214844 -4.6875 2.433594 -4.925781 2.710938 -5.085938 C 2.980469 -5.234375 3.320312 -5.316406 3.71875 -5.316406 C 4.359375 -5.316406 4.875 -5.054688 5.273438 -4.558594 C 5.671875 -4.058594 5.882812 -3.398438 5.882812 -2.59375 C 5.882812 -1.773438 5.671875 -1.117188 5.273438 -0.617188 C 4.875 -0.121094 4.359375 0.128906 3.71875 0.128906 C 3.320312 0.128906 2.980469 0.0507812 2.710938 -0.0898438 C 2.433594 -0.238281 2.214844 -0.480469 2.042969 -0.808594 L 2.042969 1.546875 L 2.890625 1.546875 L 2.890625 2.0625 L 0.289062 2.0625 L 0.289062 1.546875 L 1.148438 1.546875 Z M 1.148438 -4.65625 "/>
</g>
<g id="glyph-4-3">
<path d="M 1.078125 -4.65625 L 0.289062 -4.65625 L 0.289062 -5.175781 L 1.078125 -5.175781 L 1.078125 -6.78125 L 1.972656 -6.78125 L 1.972656 -5.175781 L 3.660156 -5.175781 L 3.660156 -4.65625 L 1.972656 -4.65625 L 1.972656 -1.367188 C 1.972656 -0.925781 2.015625 -0.636719 2.105469 -0.519531 C 2.183594 -0.398438 2.34375 -0.339844 2.574219 -0.339844 C 2.800781 -0.339844 2.972656 -0.410156 3.082031 -0.546875 C 3.179688 -0.6875 3.242188 -0.90625 3.25 -1.214844 L 3.929688 -1.214844 C 3.898438 -0.738281 3.769531 -0.398438 3.539062 -0.191406 C 3.308594 0.0195312 2.960938 0.128906 2.492188 0.128906 C 1.972656 0.128906 1.605469 0.0117188 1.394531 -0.210938 C 1.175781 -0.429688 1.078125 -0.816406 1.078125 -1.367188 Z M 1.078125 -4.65625 "/>
</g>
<g id="glyph-4-4">
<path d="M 0.410156 0 L 0.410156 -0.519531 L 1.214844 -0.519531 L 1.214844 -7.058594 L 0.359375 -7.058594 L 0.359375 -7.578125 L 2.113281 -7.578125 L 2.113281 -4.257812 C 2.273438 -4.597656 2.492188 -4.867188 2.753906 -5.046875 C 3.011719 -5.226562 3.320312 -5.316406 3.679688 -5.316406 C 4.246094 -5.316406 4.667969 -5.144531 4.9375 -4.824219 C 5.203125 -4.496094 5.34375 -3.988281 5.34375 -3.289062 L 5.34375 -0.519531 L 6.140625 -0.519531 L 6.140625 0 L 3.667969 0 L 3.667969 -0.519531 L 4.445312 -0.519531 L 4.445312 -3.011719 C 4.445312 -3.640625 4.367188 -4.066406 4.207031 -4.308594 C 4.046875 -4.535156 3.777344 -4.65625 3.390625 -4.65625 C 2.972656 -4.65625 2.652344 -4.496094 2.433594 -4.199219 C 2.214844 -3.898438 2.113281 -3.460938 2.113281 -2.882812 L 2.113281 -0.519531 L 2.890625 -0.519531 L 2.890625 0 Z M 0.410156 0 "/>
</g>
<g id="glyph-5-0">
<path d="M 1.019531 -4.425781 L 0.582031 -4.425781 L 0.582031 -5.464844 C 0.855469 -5.609375 1.132812 -5.71875 1.421875 -5.800781 C 1.699219 -5.878906 1.976562 -5.917969 2.25 -5.917969 C 2.855469 -5.917969 3.335938 -5.765625 3.683594 -5.480469 C 4.035156 -5.183594 4.210938 -4.785156 4.210938 -4.285156 C 4.210938 -3.710938 3.8125 -3.03125 3.015625 -2.242188 C 2.953125 -2.179688 2.910156 -2.136719 2.878906 -2.105469 L 1.410156 -0.636719 L 3.835938 -0.636719 L 3.835938 -1.355469 L 4.292969 -1.355469 L 4.292969 0 L 0.542969 0 L 0.542969 -0.421875 L 2.304688 -2.1875 C 2.6875 -2.570312 2.96875 -2.925781 3.136719 -3.253906 C 3.300781 -3.582031 3.390625 -3.925781 3.390625 -4.285156 C 3.390625 -4.675781 3.285156 -4.976562 3.078125 -5.199219 C 2.871094 -5.425781 2.59375 -5.535156 2.242188 -5.535156 C 1.867188 -5.535156 1.578125 -5.441406 1.378906 -5.257812 C 1.171875 -5.074219 1.054688 -4.792969 1.019531 -4.425781 Z M 1.019531 -4.425781 "/>
</g>
<g id="glyph-5-1">
<path d="M 2.785156 -1.96875 L 2.785156 -5.066406 L 0.796875 -1.96875 Z M 4.5 0 L 1.851562 0 L 1.851562 -0.414062 L 2.785156 -0.414062 L 2.785156 -1.554688 L 0.246094 -1.554688 L 0.246094 -1.976562 L 2.792969 -5.917969 L 3.566406 -5.917969 L 3.566406 -1.96875 L 4.675781 -1.96875 L 4.675781 -1.554688 L 3.566406 -1.554688 L 3.566406 -0.414062 L 4.5 -0.414062 Z M 4.5 0 "/>
</g>
<g id="glyph-5-2">
<path d="M 3.71875 -1.585938 C 3.71875 -2.003906 3.613281 -2.320312 3.40625 -2.550781 C 3.199219 -2.785156 2.902344 -2.902344 2.535156 -2.902344 C 2.160156 -2.902344 1.875 -2.785156 1.667969 -2.550781 C 1.460938 -2.320312 1.355469 -2.003906 1.355469 -1.585938 C 1.355469 -1.171875 1.460938 -0.84375 1.667969 -0.613281 C 1.875 -0.382812 2.160156 -0.269531 2.535156 -0.269531 C 2.902344 -0.269531 3.199219 -0.382812 3.40625 -0.613281 C 3.613281 -0.84375 3.71875 -1.171875 3.71875 -1.585938 Z M 3.558594 -4.410156 C 3.558594 -4.761719 3.460938 -5.042969 3.285156 -5.242188 C 3.101562 -5.433594 2.855469 -5.535156 2.535156 -5.535156 C 2.21875 -5.535156 1.960938 -5.433594 1.785156 -5.242188 C 1.601562 -5.042969 1.515625 -4.761719 1.515625 -4.410156 C 1.515625 -4.050781 1.601562 -3.773438 1.785156 -3.582031 C 1.960938 -3.382812 2.21875 -3.285156 2.535156 -3.285156 C 2.855469 -3.285156 3.101562 -3.382812 3.285156 -3.582031 C 3.460938 -3.773438 3.558594 -4.050781 3.558594 -4.410156 Z M 3.136719 -3.09375 C 3.574219 -3.03125 3.917969 -2.871094 4.164062 -2.609375 C 4.410156 -2.335938 4.539062 -2.003906 4.539062 -1.585938 C 4.539062 -1.046875 4.363281 -0.621094 4.019531 -0.335938 C 3.667969 -0.0390625 3.175781 0.105469 2.535156 0.105469 C 1.890625 0.105469 1.394531 -0.0390625 1.054688 -0.335938 C 0.703125 -0.621094 0.535156 -1.046875 0.535156 -1.585938 C 0.535156 -2.003906 0.652344 -2.335938 0.902344 -2.609375 C 1.148438 -2.871094 1.492188 -3.03125 1.9375 -3.09375 C 1.539062 -3.160156 1.246094 -3.308594 1.035156 -3.542969 C 0.828125 -3.765625 0.726562 -4.058594 0.726562 -4.410156 C 0.726562 -4.875 0.886719 -5.242188 1.203125 -5.511719 C 1.523438 -5.785156 1.96875 -5.917969 2.535156 -5.917969 C 3.09375 -5.917969 3.542969 -5.785156 3.859375 -5.511719 C 4.179688 -5.242188 4.347656 -4.875 4.347656 -4.410156 C 4.347656 -4.058594 4.234375 -3.765625 4.027344 -3.542969 C 3.820312 -3.308594 3.519531 -3.160156 3.136719 -3.09375 Z M 3.136719 -3.09375 "/>
</g>
<g id="glyph-5-3">
<path d="M 1.132812 0 L 1.132812 -0.414062 L 2.144531 -0.414062 L 2.144531 -5.25 L 0.972656 -4.492188 L 0.972656 -5 L 2.394531 -5.917969 L 2.925781 -5.917969 L 2.925781 -0.414062 L 3.941406 -0.414062 L 3.941406 0 Z M 1.132812 0 "/>
</g>
<g id="glyph-5-4">
<path d="M 2.609375 -0.269531 C 2.976562 -0.269531 3.253906 -0.398438 3.453125 -0.671875 C 3.644531 -0.941406 3.75 -1.324219 3.75 -1.835938 C 3.75 -2.335938 3.644531 -2.71875 3.453125 -2.992188 C 3.253906 -3.261719 2.976562 -3.398438 2.609375 -3.398438 C 2.234375 -3.398438 1.945312 -3.261719 1.753906 -3.007812 C 1.5625 -2.742188 1.46875 -2.371094 1.46875 -1.882812 C 1.46875 -1.363281 1.5625 -0.964844 1.761719 -0.6875 C 1.953125 -0.40625 2.242188 -0.269531 2.609375 -0.269531 Z M 1.339844 -3.199219 C 1.515625 -3.390625 1.714844 -3.542969 1.9375 -3.636719 C 2.160156 -3.734375 2.410156 -3.78125 2.695312 -3.78125 C 3.269531 -3.78125 3.734375 -3.605469 4.066406 -3.253906 C 4.402344 -2.902344 4.570312 -2.433594 4.570312 -1.835938 C 4.570312 -1.246094 4.386719 -0.773438 4.027344 -0.421875 C 3.660156 -0.0703125 3.183594 0.105469 2.578125 0.105469 C 1.921875 0.105469 1.410156 -0.136719 1.0625 -0.621094 C 0.710938 -1.109375 0.535156 -1.8125 0.535156 -2.71875 C 0.535156 -3.734375 0.742188 -4.523438 1.15625 -5.082031 C 1.570312 -5.640625 2.160156 -5.917969 2.925781 -5.917969 C 3.136719 -5.917969 3.351562 -5.894531 3.574219 -5.863281 C 3.796875 -5.824219 4.027344 -5.765625 4.269531 -5.6875 L 4.269531 -4.730469 L 3.828125 -4.730469 C 3.796875 -4.984375 3.695312 -5.183594 3.527344 -5.328125 C 3.359375 -5.464844 3.136719 -5.535156 2.847656 -5.535156 C 2.335938 -5.535156 1.960938 -5.34375 1.714844 -4.960938 C 1.46875 -4.578125 1.339844 -3.988281 1.339844 -3.199219 Z M 1.339844 -3.199219 "/>
</g>
<g id="glyph-5-5">
<path d="M 0.773438 -5.566406 C 1.078125 -5.679688 1.363281 -5.765625 1.644531 -5.832031 C 1.921875 -5.886719 2.1875 -5.917969 2.433594 -5.917969 C 3 -5.917969 3.445312 -5.792969 3.765625 -5.550781 C 4.085938 -5.304688 4.242188 -4.960938 4.242188 -4.53125 C 4.242188 -4.179688 4.132812 -3.886719 3.910156 -3.652344 C 3.683594 -3.414062 3.375 -3.253906 2.976562 -3.175781 C 3.453125 -3.101562 3.820312 -2.925781 4.085938 -2.648438 C 4.347656 -2.371094 4.484375 -2.011719 4.484375 -1.570312 C 4.484375 -1.027344 4.300781 -0.613281 3.933594 -0.328125 C 3.566406 -0.0390625 3.046875 0.105469 2.359375 0.105469 C 2.058594 0.105469 1.753906 0.0703125 1.46875 0.0078125 C 1.179688 -0.046875 0.894531 -0.144531 0.605469 -0.277344 L 0.605469 -1.410156 L 1.046875 -1.410156 C 1.070312 -1.027344 1.195312 -0.75 1.421875 -0.558594 C 1.644531 -0.367188 1.960938 -0.269531 2.378906 -0.269531 C 2.777344 -0.269531 3.085938 -0.382812 3.320312 -0.613281 C 3.542969 -0.84375 3.660156 -1.164062 3.660156 -1.5625 C 3.660156 -2.019531 3.542969 -2.359375 3.300781 -2.601562 C 3.0625 -2.832031 2.71875 -2.953125 2.265625 -2.953125 L 1.898438 -2.953125 L 1.898438 -3.351562 L 2.089844 -3.351562 C 2.542969 -3.351562 2.886719 -3.4375 3.109375 -3.628906 C 3.335938 -3.820312 3.453125 -4.101562 3.453125 -4.484375 C 3.453125 -4.816406 3.359375 -5.082031 3.175781 -5.265625 C 2.984375 -5.441406 2.71875 -5.535156 2.371094 -5.535156 C 2.019531 -5.535156 1.738281 -5.449219 1.546875 -5.28125 C 1.355469 -5.113281 1.246094 -4.867188 1.210938 -4.546875 L 0.773438 -4.546875 Z M 0.773438 -5.566406 "/>
</g>
</g>
<clipPath id="clip-0">
<path clip-rule="nonzero" d="M 0.15625 0 L 328.582031 0 L 328.582031 293.316406 L 0.15625 293.316406 Z M 0.15625 0 "/>
</clipPath>
<clipPath id="clip-1">
<path clip-rule="nonzero" d="M 43.203125 239 L 321.402344 239 L 321.402344 241 L 43.203125 241 Z M 43.203125 239 "/>
</clipPath>
<clipPath id="clip-2">
<path clip-rule="nonzero" d="M 43.203125 211 L 321.402344 211 L 321.402344 212 L 43.203125 212 Z M 43.203125 211 "/>
</clipPath>
<clipPath id="clip-3">
<path clip-rule="nonzero" d="M 43.203125 182 L 321.402344 182 L 321.402344 183 L 43.203125 183 Z M 43.203125 182 "/>
</clipPath>
<clipPath id="clip-4">
<path clip-rule="nonzero" d="M 43.203125 153 L 321.402344 153 L 321.402344 155 L 43.203125 155 Z M 43.203125 153 "/>
</clipPath>
<clipPath id="clip-5">
<path clip-rule="nonzero" d="M 43.203125 124 L 321.402344 124 L 321.402344 126 L 43.203125 126 Z M 43.203125 124 "/>
</clipPath>
<clipPath id="clip-6">
<path clip-rule="nonzero" d="M 43.203125 96 L 321.402344 96 L 321.402344 97 L 43.203125 97 Z M 43.203125 96 "/>
</clipPath>
<clipPath id="clip-7">
<path clip-rule="nonzero" d="M 43.203125 67 L 321.402344 67 L 321.402344 68 L 43.203125 68 Z M 43.203125 67 "/>
</clipPath>
<clipPath id="clip-8">
<path clip-rule="nonzero" d="M 43.203125 38.910156 L 321.402344 38.910156 L 321.402344 40 L 43.203125 40 Z M 43.203125 38.910156 "/>
</clipPath>
<clipPath id="clip-9">
<path clip-rule="nonzero" d="M 65 38.910156 L 193 38.910156 L 193 144 L 65 144 Z M 65 38.910156 "/>
</clipPath>
<clipPath id="clip-10">
<path clip-rule="nonzero" d="M 94.992188 62.171875 L 105.960938 62.171875 L 105.960938 73.140625 L 94.992188 73.140625 Z M 94.992188 62.171875 "/>
</clipPath>
<clipPath id="clip-11">
<path clip-rule="nonzero" d="M 135.90625 115.351562 L 146.875 115.351562 L 146.875 126.320312 L 135.90625 126.320312 Z M 135.90625 115.351562 "/>
</clipPath>
<clipPath id="clip-12">
<path clip-rule="nonzero" d="M 176.816406 136.914062 L 187.785156 136.914062 L 187.785156 147.882812 L 176.816406 147.882812 Z M 176.816406 136.914062 "/>
</clipPath>
<clipPath id="clip-13">
<path clip-rule="nonzero" d="M 58 38.910156 L 173 38.910156 L 173 174 L 58 174 Z M 58 38.910156 "/>
</clipPath>
<clipPath id="clip-14">
<path clip-rule="nonzero" d="M 54.082031 152.722656 L 65.050781 152.722656 L 65.050781 163.691406 L 54.082031 163.691406 Z M 54.082031 152.722656 "/>
</clipPath>
<clipPath id="clip-15">
<path clip-rule="nonzero" d="M 94.992188 159.910156 L 105.960938 159.910156 L 105.960938 170.878906 L 94.992188 170.878906 Z M 94.992188 159.910156 "/>
</clipPath>
<clipPath id="clip-16">
<path clip-rule="nonzero" d="M 135.90625 167.097656 L 146.875 167.097656 L 146.875 178.066406 L 135.90625 178.066406 Z M 135.90625 167.097656 "/>
</clipPath>
<clipPath id="clip-17">
<path clip-rule="nonzero" d="M 58 38.910156 L 178 38.910156 L 178 194 L 58 194 Z M 58 38.910156 "/>
</clipPath>
<clipPath id="clip-18">
<path clip-rule="nonzero" d="M 54.082031 178.59375 L 65.050781 178.59375 L 65.050781 189.5625 L 54.082031 189.5625 Z M 54.082031 178.59375 "/>
</clipPath>
<clipPath id="clip-19">
<path clip-rule="nonzero" d="M 94.992188 185.78125 L 105.960938 185.78125 L 105.960938 196.75 L 94.992188 196.75 Z M 94.992188 185.78125 "/>
</clipPath>
<clipPath id="clip-20">
<path clip-rule="nonzero" d="M 135.90625 187.21875 L 146.875 187.21875 L 146.875 198.1875 L 135.90625 198.1875 Z M 135.90625 187.21875 "/>
</clipPath>
<clipPath id="clip-21">
<path clip-rule="nonzero" d="M 58 38.910156 L 194 38.910156 L 194 209 L 58 209 Z M 58 38.910156 "/>
</clipPath>
<clipPath id="clip-22">
<path clip-rule="nonzero" d="M 54.082031 197.28125 L 65.050781 197.28125 L 65.050781 208.25 L 54.082031 208.25 Z M 54.082031 197.28125 "/>
</clipPath>
<clipPath id="clip-23">
<path clip-rule="nonzero" d="M 94.992188 201.59375 L 105.960938 201.59375 L 105.960938 212.5625 L 94.992188 212.5625 Z M 94.992188 201.59375 "/>
</clipPath>
<clipPath id="clip-24">
<path clip-rule="nonzero" d="M 135.90625 175.71875 L 146.875 175.71875 L 146.875 186.6875 L 135.90625 186.6875 Z M 135.90625 175.71875 "/>
</clipPath>
<clipPath id="clip-25">
<path clip-rule="nonzero" d="M 176.816406 112.480469 L 187.785156 112.480469 L 187.785156 123.445312 L 176.816406 123.445312 Z M 176.816406 112.480469 "/>
</clipPath>
<clipPath id="clip-26">
<path clip-rule="nonzero" d="M 58 38.910156 L 128 38.910156 L 128 217 L 58 217 Z M 58 38.910156 "/>
</clipPath>
<clipPath id="clip-27">
<path clip-rule="nonzero" d="M 54.082031 208.777344 L 65.050781 208.777344 L 65.050781 219.746094 L 54.082031 219.746094 Z M 54.082031 208.777344 "/>
</clipPath>
<clipPath id="clip-28">
<path clip-rule="nonzero" d="M 94.992188 210.214844 L 105.960938 210.214844 L 105.960938 221.183594 L 94.992188 221.183594 Z M 94.992188 210.214844 "/>
</clipPath>
</defs>
<g clip-path="url(#clip-0)">
<path fill-rule="nonzero" fill="rgb(100%, 100%, 100%)" fill-opacity="1" d="M 0.15625 293.316406 L 328.582031 293.316406 L 328.582031 0 L 0.15625 0 Z M 0.15625 293.316406 "/>
</g>
<path fill-rule="nonzero" fill="rgb(100%, 100%, 100%)" fill-opacity="1" d="M 43.203125 254.507812 L 321.402344 254.507812 L 321.402344 38.910156 L 43.203125 38.910156 Z M 43.203125 254.507812 "/>
<path fill="none" stroke-width="0.8" stroke-linecap="butt" stroke-linejoin="round" stroke="rgb(0%, 0%, 0%)" stroke-opacity="1" stroke-miterlimit="10" d="M 59.580648 38.919114 L 59.580648 35.416914 " transform="matrix(0.997141, 0, 0, -0.997141, 0.156093, 293.315661)"/>
<g fill="rgb(0%, 0%, 0%)" fill-opacity="1">
<use xlink:href="#glyph-0-0" x="60.46409" y="268.312348"/>
</g>
<path fill-rule="nonzero" fill="rgb(0%, 0%, 0%)" fill-opacity="1" d="M 53.894531 265.144531 L 59.515625 265.144531 L 59.515625 265.851562 L 53.894531 265.851562 Z M 53.894531 265.144531 "/>
<path fill="none" stroke-width="0.8" stroke-linecap="butt" stroke-linejoin="round" stroke="rgb(0%, 0%, 0%)" stroke-opacity="1" stroke-miterlimit="10" d="M 100.608098 38.919114 L 100.608098 35.416914 " transform="matrix(0.997141, 0, 0, -0.997141, 0.156093, 293.315661)"/>
<g fill="rgb(0%, 0%, 0%)" fill-opacity="1">
<use xlink:href="#glyph-0-1" x="101.376203" y="268.312348"/>
</g>
<path fill-rule="nonzero" fill="rgb(0%, 0%, 0%)" fill-opacity="1" d="M 94.808594 265.144531 L 100.425781 265.144531 L 100.425781 265.851562 L 94.808594 265.851562 Z M 94.808594 265.144531 "/>
<path fill="none" stroke-width="0.8" stroke-linecap="butt" stroke-linejoin="round" stroke="rgb(0%, 0%, 0%)" stroke-opacity="1" stroke-miterlimit="10" d="M 141.639465 38.919114 L 141.639465 35.416914 " transform="matrix(0.997141, 0, 0, -0.997141, 0.156093, 293.315661)"/>
<g fill="rgb(0%, 0%, 0%)" fill-opacity="1">
<use xlink:href="#glyph-0-2" x="142.288315" y="268.312348"/>
</g>
<path fill-rule="nonzero" fill="rgb(0%, 0%, 0%)" fill-opacity="1" d="M 135.71875 265.144531 L 141.339844 265.144531 L 141.339844 265.851562 L 135.71875 265.851562 Z M 135.71875 265.144531 "/>
<path fill="none" stroke-width="0.8" stroke-linecap="butt" stroke-linejoin="round" stroke="rgb(0%, 0%, 0%)" stroke-opacity="1" stroke-miterlimit="10" d="M 182.666914 38.919114 L 182.666914 35.416914 " transform="matrix(0.997141, 0, 0, -0.997141, 0.156093, 293.315661)"/>
<g fill="rgb(0%, 0%, 0%)" fill-opacity="1">
<use xlink:href="#glyph-0-3" x="183.200428" y="268.312348"/>
</g>
<path fill-rule="nonzero" fill="rgb(0%, 0%, 0%)" fill-opacity="1" d="M 176.632812 265.144531 L 182.25 265.144531 L 182.25 265.851562 L 176.632812 265.851562 Z M 176.632812 265.144531 "/>
<path fill="none" stroke-width="0.8" stroke-linecap="butt" stroke-linejoin="round" stroke="rgb(0%, 0%, 0%)" stroke-opacity="1" stroke-miterlimit="10" d="M 223.698281 38.919114 L 223.698281 35.416914 " transform="matrix(0.997141, 0, 0, -0.997141, 0.156093, 293.315661)"/>
<g fill="rgb(0%, 0%, 0%)" fill-opacity="1">
<use xlink:href="#glyph-0-4" x="224.112541" y="268.312348"/>
</g>
<path fill-rule="nonzero" fill="rgb(0%, 0%, 0%)" fill-opacity="1" d="M 217.542969 265.144531 L 223.164062 265.144531 L 223.164062 265.851562 L 217.542969 265.851562 Z M 217.542969 265.144531 "/>
<path fill="none" stroke-width="0.8" stroke-linecap="butt" stroke-linejoin="round" stroke="rgb(0%, 0%, 0%)" stroke-opacity="1" stroke-miterlimit="10" d="M 264.725731 38.919114 L 264.725731 35.416914 " transform="matrix(0.997141, 0, 0, -0.997141, 0.156093, 293.315661)"/>
<g fill="rgb(0%, 0%, 0%)" fill-opacity="1">
<use xlink:href="#glyph-0-5" x="265.024654" y="268.312348"/>
</g>
<path fill-rule="nonzero" fill="rgb(0%, 0%, 0%)" fill-opacity="1" d="M 258.457031 265.144531 L 264.074219 265.144531 L 264.074219 265.851562 L 258.457031 265.851562 Z M 258.457031 265.144531 "/>
<path fill="none" stroke-width="0.8" stroke-linecap="butt" stroke-linejoin="round" stroke="rgb(0%, 0%, 0%)" stroke-opacity="1" stroke-miterlimit="10" d="M 305.757098 38.919114 L 305.757098 35.416914 " transform="matrix(0.997141, 0, 0, -0.997141, 0.156093, 293.315661)"/>
<g fill="rgb(0%, 0%, 0%)" fill-opacity="1">
<use xlink:href="#glyph-0-6" x="305.936767" y="268.312348"/>
</g>
<path fill-rule="nonzero" fill="rgb(0%, 0%, 0%)" fill-opacity="1" d="M 299.367188 265.144531 L 304.988281 265.144531 L 304.988281 265.851562 L 299.367188 265.851562 Z M 299.367188 265.144531 "/>
<g fill="rgb(0%, 0%, 0%)" fill-opacity="1">
<use xlink:href="#glyph-1-0" x="161.861219" y="282.506028"/>
</g>
<g fill="rgb(0%, 0%, 0%)" fill-opacity="1">
<use xlink:href="#glyph-1-1" x="164.908634" y="282.506028"/>
</g>
<g fill="rgb(0%, 0%, 0%)" fill-opacity="1">
<use xlink:href="#glyph-1-2" x="171.619375" y="282.506028"/>
</g>
<g fill="rgb(0%, 0%, 0%)" fill-opacity="1">
<use xlink:href="#glyph-2-0" x="178.686807" y="284.305556"/>
</g>
<g fill="rgb(0%, 0%, 0%)" fill-opacity="1">
<use xlink:href="#glyph-1-3" x="185.652516" y="282.506028"/>
</g>
<g fill="rgb(0%, 0%, 0%)" fill-opacity="1">
<use xlink:href="#glyph-1-0" x="189.931751" y="282.506028"/>
</g>
<g fill="rgb(0%, 0%, 0%)" fill-opacity="1">
<use xlink:href="#glyph-1-4" x="192.979166" y="282.506028"/>
</g>
<g fill="rgb(0%, 0%, 0%)" fill-opacity="1">
<use xlink:href="#glyph-1-5" x="197.488697" y="282.506028"/>
</g>
<g clip-path="url(#clip-1)">
<path fill="none" stroke-width="0.4" stroke-linecap="square" stroke-linejoin="round" stroke="rgb(69.018555%, 69.018555%, 69.018555%)" stroke-opacity="0.5" stroke-miterlimit="10" d="M 43.170452 53.331411 L 322.167294 53.331411 " transform="matrix(0.997141, 0, 0, -0.997141, 0.156093, 293.315661)"/>
</g>
<path fill="none" stroke-width="0.8" stroke-linecap="butt" stroke-linejoin="round" stroke="rgb(0%, 0%, 0%)" stroke-opacity="1" stroke-miterlimit="10" d="M 43.170452 53.331411 L 39.668252 53.331411 " transform="matrix(0.997141, 0, 0, -0.997141, 0.156093, 293.315661)"/>
<g fill="rgb(0%, 0%, 0%)" fill-opacity="1">
<use xlink:href="#glyph-0-7" x="21.934278" y="243.547077"/>
<use xlink:href="#glyph-0-8" x="27.641914" y="243.547077"/>
<use xlink:href="#glyph-0-3" x="30.495732" y="243.547077"/>
</g>
<g clip-path="url(#clip-2)">
<path fill="none" stroke-width="0.4" stroke-linecap="square" stroke-linejoin="round" stroke="rgb(69.018555%, 69.018555%, 69.018555%)" stroke-opacity="0.5" stroke-miterlimit="10" d="M 43.170452 82.16384 L 322.167294 82.16384 " transform="matrix(0.997141, 0, 0, -0.997141, 0.156093, 293.315661)"/>
</g>
<path fill="none" stroke-width="0.8" stroke-linecap="butt" stroke-linejoin="round" stroke="rgb(0%, 0%, 0%)" stroke-opacity="1" stroke-miterlimit="10" d="M 43.170452 82.16384 L 39.668252 82.16384 " transform="matrix(0.997141, 0, 0, -0.997141, 0.156093, 293.315661)"/>
<g fill="rgb(0%, 0%, 0%)" fill-opacity="1">
<use xlink:href="#glyph-0-7" x="21.934278" y="214.800696"/>
<use xlink:href="#glyph-0-8" x="27.641914" y="214.800696"/>
<use xlink:href="#glyph-0-1" x="30.495732" y="214.800696"/>
</g>
<g clip-path="url(#clip-3)">
<path fill="none" stroke-width="0.4" stroke-linecap="square" stroke-linejoin="round" stroke="rgb(69.018555%, 69.018555%, 69.018555%)" stroke-opacity="0.5" stroke-miterlimit="10" d="M 43.170452 110.992352 L 322.167294 110.992352 " transform="matrix(0.997141, 0, 0, -0.997141, 0.156093, 293.315661)"/>
</g>
<path fill="none" stroke-width="0.8" stroke-linecap="butt" stroke-linejoin="round" stroke="rgb(0%, 0%, 0%)" stroke-opacity="1" stroke-miterlimit="10" d="M 43.170452 110.992352 L 39.668252 110.992352 " transform="matrix(0.997141, 0, 0, -0.997141, 0.156093, 293.315661)"/>
<g fill="rgb(0%, 0%, 0%)" fill-opacity="1">
<use xlink:href="#glyph-0-9" x="21.934278" y="186.054315"/>
<use xlink:href="#glyph-0-8" x="27.641914" y="186.054315"/>
<use xlink:href="#glyph-0-10" x="30.495732" y="186.054315"/>
</g>
<g clip-path="url(#clip-4)">
<path fill="none" stroke-width="0.4" stroke-linecap="square" stroke-linejoin="round" stroke="rgb(69.018555%, 69.018555%, 69.018555%)" stroke-opacity="0.5" stroke-miterlimit="10" d="M 43.170452 139.820864 L 322.167294 139.820864 " transform="matrix(0.997141, 0, 0, -0.997141, 0.156093, 293.315661)"/>
</g>
<path fill="none" stroke-width="0.8" stroke-linecap="butt" stroke-linejoin="round" stroke="rgb(0%, 0%, 0%)" stroke-opacity="1" stroke-miterlimit="10" d="M 43.170452 139.820864 L 39.668252 139.820864 " transform="matrix(0.997141, 0, 0, -0.997141, 0.156093, 293.315661)"/>
<g fill="rgb(0%, 0%, 0%)" fill-opacity="1">
<use xlink:href="#glyph-0-9" x="21.934278" y="157.307933"/>
<use xlink:href="#glyph-0-8" x="27.641914" y="157.307933"/>
<use xlink:href="#glyph-0-9" x="30.495732" y="157.307933"/>
</g>
<g clip-path="url(#clip-5)">
<path fill="none" stroke-width="0.4" stroke-linecap="square" stroke-linejoin="round" stroke="rgb(69.018555%, 69.018555%, 69.018555%)" stroke-opacity="0.5" stroke-miterlimit="10" d="M 43.170452 168.649375 L 322.167294 168.649375 " transform="matrix(0.997141, 0, 0, -0.997141, 0.156093, 293.315661)"/>
</g>
<path fill="none" stroke-width="0.8" stroke-linecap="butt" stroke-linejoin="round" stroke="rgb(0%, 0%, 0%)" stroke-opacity="1" stroke-miterlimit="10" d="M 43.170452 168.649375 L 39.668252 168.649375 " transform="matrix(0.997141, 0, 0, -0.997141, 0.156093, 293.315661)"/>
<g fill="rgb(0%, 0%, 0%)" fill-opacity="1">
<use xlink:href="#glyph-0-9" x="21.934278" y="128.561552"/>
<use xlink:href="#glyph-0-8" x="27.641914" y="128.561552"/>
<use xlink:href="#glyph-0-5" x="30.495732" y="128.561552"/>
</g>
<g clip-path="url(#clip-6)">
<path fill="none" stroke-width="0.4" stroke-linecap="square" stroke-linejoin="round" stroke="rgb(69.018555%, 69.018555%, 69.018555%)" stroke-opacity="0.5" stroke-miterlimit="10" d="M 43.170452 197.477887 L 322.167294 197.477887 " transform="matrix(0.997141, 0, 0, -0.997141, 0.156093, 293.315661)"/>
</g>
<path fill="none" stroke-width="0.8" stroke-linecap="butt" stroke-linejoin="round" stroke="rgb(0%, 0%, 0%)" stroke-opacity="1" stroke-miterlimit="10" d="M 43.170452 197.477887 L 39.668252 197.477887 " transform="matrix(0.997141, 0, 0, -0.997141, 0.156093, 293.315661)"/>
<g fill="rgb(0%, 0%, 0%)" fill-opacity="1">
<use xlink:href="#glyph-0-9" x="21.934278" y="99.81517"/>
<use xlink:href="#glyph-0-8" x="27.641914" y="99.81517"/>
<use xlink:href="#glyph-0-3" x="30.495732" y="99.81517"/>
</g>
<g clip-path="url(#clip-7)">
<path fill="none" stroke-width="0.4" stroke-linecap="square" stroke-linejoin="round" stroke="rgb(69.018555%, 69.018555%, 69.018555%)" stroke-opacity="0.5" stroke-miterlimit="10" d="M 43.170452 226.306398 L 322.167294 226.306398 " transform="matrix(0.997141, 0, 0, -0.997141, 0.156093, 293.315661)"/>
</g>
<path fill="none" stroke-width="0.8" stroke-linecap="butt" stroke-linejoin="round" stroke="rgb(0%, 0%, 0%)" stroke-opacity="1" stroke-miterlimit="10" d="M 43.170452 226.306398 L 39.668252 226.306398 " transform="matrix(0.997141, 0, 0, -0.997141, 0.156093, 293.315661)"/>
<g fill="rgb(0%, 0%, 0%)" fill-opacity="1">
<use xlink:href="#glyph-0-9" x="21.934278" y="71.068789"/>
<use xlink:href="#glyph-0-8" x="27.641914" y="71.068789"/>
<use xlink:href="#glyph-0-1" x="30.495732" y="71.068789"/>
</g>
<g clip-path="url(#clip-8)">
<path fill="none" stroke-width="0.4" stroke-linecap="square" stroke-linejoin="round" stroke="rgb(69.018555%, 69.018555%, 69.018555%)" stroke-opacity="0.5" stroke-miterlimit="10" d="M 43.170452 255.13491 L 322.167294 255.13491 " transform="matrix(0.997141, 0, 0, -0.997141, 0.156093, 293.315661)"/>
</g>
<path fill="none" stroke-width="0.8" stroke-linecap="butt" stroke-linejoin="round" stroke="rgb(0%, 0%, 0%)" stroke-opacity="1" stroke-miterlimit="10" d="M 43.170452 255.13491 L 39.668252 255.13491 " transform="matrix(0.997141, 0, 0, -0.997141, 0.156093, 293.315661)"/>
<g fill="rgb(0%, 0%, 0%)" fill-opacity="1">
<use xlink:href="#glyph-0-6" x="21.934278" y="42.322408"/>
<use xlink:href="#glyph-0-8" x="27.641914" y="42.322408"/>
<use xlink:href="#glyph-0-10" x="30.495732" y="42.322408"/>
</g>
<g fill="rgb(0%, 0%, 0%)" fill-opacity="1">
<use xlink:href="#glyph-3-0" x="15.670986" y="157.389562"/>
<use xlink:href="#glyph-3-1" x="15.670986" y="153.879625"/>
<use xlink:href="#glyph-3-2" x="15.670986" y="147.276557"/>
<use xlink:href="#glyph-3-2" x="15.670986" y="141.649689"/>
</g>
<g clip-path="url(#clip-9)">
<path fill="none" stroke-width="1.5" stroke-linecap="square" stroke-linejoin="round" stroke="rgb(12.156677%, 46.665955%, 70.587158%)" stroke-opacity="1" stroke-miterlimit="10" d="M 66.820095 295.155575 L 100.608098 226.306398 L 141.639465 172.974239 L 182.666914 151.349918 L 191.724058 295.155575 " transform="matrix(0.997141, 0, 0, -0.997141, 0.156093, 293.315661)"/>
</g>
<path fill-rule="nonzero" fill="rgb(12.156677%, 46.665955%, 70.587158%)" fill-opacity="1" d="M 100.476562 64.664062 L 97.488281 70.648438 L 103.46875 70.648438 Z M 100.476562 64.664062 "/>
<g clip-path="url(#clip-10)">
<path fill="none" stroke-width="0.5" stroke-linecap="butt" stroke-linejoin="miter" stroke="rgb(100%, 100%, 100%)" stroke-opacity="1" stroke-miterlimit="10" d="M -0.00182887 3.001214 L -2.998678 -3.000318 L 2.998938 -3.000318 Z M -0.00182887 3.001214 " transform="matrix(0.997141, 0, 0, -0.997141, 100.478386, 67.656697)"/>
</g>
<path fill-rule="nonzero" fill="rgb(12.156677%, 46.665955%, 70.587158%)" fill-opacity="1" d="M 141.390625 117.847656 L 138.398438 123.828125 L 144.382812 123.828125 Z M 141.390625 117.847656 "/>
<g clip-path="url(#clip-11)">
<path fill="none" stroke-width="0.5" stroke-linecap="butt" stroke-linejoin="miter" stroke="rgb(100%, 100%, 100%)" stroke-opacity="1" stroke-miterlimit="10" d="M 0.00012637 2.998418 L -3.00064 -2.999197 L 3.000893 -2.999197 Z M 0.00012637 2.998418 " transform="matrix(0.997141, 0, 0, -0.997141, 141.390499, 120.837502)"/>
</g>
<path fill-rule="nonzero" fill="rgb(12.156677%, 46.665955%, 70.587158%)" fill-opacity="1" d="M 182.300781 139.40625 L 179.3125 145.390625 L 185.292969 145.390625 Z M 182.300781 139.40625 "/>
<g clip-path="url(#clip-12)">
<path fill="none" stroke-width="0.5" stroke-linecap="butt" stroke-linejoin="miter" stroke="rgb(100%, 100%, 100%)" stroke-opacity="1" stroke-miterlimit="10" d="M -0.00183584 2.999614 L -2.998685 -3.001919 L 2.998931 -3.001919 Z M -0.00183584 2.999614 " transform="matrix(0.997141, 0, 0, -0.997141, 182.302612, 142.397288)"/>
</g>
<g clip-path="url(#clip-13)">
<path fill="none" stroke-width="1.5" stroke-linecap="square" stroke-linejoin="round" stroke="rgb(17.254639%, 62.744141%, 17.254639%)" stroke-opacity="1" stroke-miterlimit="10" d="M 59.580648 135.495999 L 100.608098 128.287892 L 141.639465 121.079785 L 172.038873 295.155575 " transform="matrix(0.997141, 0, 0, -0.997141, 0.156093, 293.315661)"/>
</g>
<path fill-rule="nonzero" fill="rgb(17.254639%, 62.744141%, 17.254639%)" fill-opacity="1" d="M 59.566406 155.214844 L 56.574219 161.199219 L 62.558594 161.199219 Z M 59.566406 155.214844 "/>
<g clip-path="url(#clip-14)">
<path fill="none" stroke-width="0.5" stroke-linecap="butt" stroke-linejoin="miter" stroke="rgb(100%, 100%, 100%)" stroke-opacity="1" stroke-miterlimit="10" d="M 0.000133337 3.001536 L -3.000633 -2.999997 L 3.0009 -2.999997 Z M 0.000133337 3.001536 " transform="matrix(0.997141, 0, 0, -0.997141, 59.566273, 158.207798)"/>
</g>
<path fill-rule="nonzero" fill="rgb(17.254639%, 62.744141%, 17.254639%)" fill-opacity="1" d="M 100.476562 162.402344 L 97.488281 168.386719 L 103.46875 168.386719 Z M 100.476562 162.402344 "/>
<g clip-path="url(#clip-15)">
<path fill="none" stroke-width="0.5" stroke-linecap="butt" stroke-linejoin="miter" stroke="rgb(100%, 100%, 100%)" stroke-opacity="1" stroke-miterlimit="10" d="M -0.00182887 3.000628 L -2.998678 -3.000904 L 2.998938 -3.000904 Z M -0.00182887 3.000628 " transform="matrix(0.997141, 0, 0, -0.997141, 100.478386, 165.394394)"/>
</g>
<path fill-rule="nonzero" fill="rgb(17.254639%, 62.744141%, 17.254639%)" fill-opacity="1" d="M 141.390625 169.589844 L 138.398438 175.574219 L 144.382812 175.574219 Z M 141.390625 169.589844 "/>
<g clip-path="url(#clip-16)">
<path fill="none" stroke-width="0.5" stroke-linecap="butt" stroke-linejoin="miter" stroke="rgb(100%, 100%, 100%)" stroke-opacity="1" stroke-miterlimit="10" d="M 0.00012637 2.999721 L -3.00064 -3.001812 L 3.000893 -3.001812 Z M 0.00012637 2.999721 " transform="matrix(0.997141, 0, 0, -0.997141, 141.390499, 172.580989)"/>
</g>
<g clip-path="url(#clip-17)">
<path fill="none" stroke-width="1.5" stroke-linecap="square" stroke-linejoin="round" stroke="rgb(58.03833%, 40.391541%, 74.116516%)" stroke-opacity="1" stroke-miterlimit="10" d="M 59.580648 109.550731 L 100.608098 102.342623 L 141.639465 100.901002 L 176.857336 295.155575 " transform="matrix(0.997141, 0, 0, -0.997141, 0.156093, 293.315661)"/>
</g>
<path fill-rule="nonzero" fill="rgb(58.03833%, 40.391541%, 74.116516%)" fill-opacity="1" d="M 59.566406 181.089844 L 56.574219 187.070312 L 62.558594 187.070312 Z M 59.566406 181.089844 "/>
<g clip-path="url(#clip-18)">
<path fill="none" stroke-width="0.5" stroke-linecap="butt" stroke-linejoin="miter" stroke="rgb(100%, 100%, 100%)" stroke-opacity="1" stroke-miterlimit="10" d="M 0.000133337 2.998269 L -3.000633 -2.999346 L 3.0009 -2.999346 Z M 0.000133337 2.998269 " transform="matrix(0.997141, 0, 0, -0.997141, 59.566273, 184.079541)"/>
</g>
<path fill-rule="nonzero" fill="rgb(58.03833%, 40.391541%, 74.116516%)" fill-opacity="1" d="M 100.476562 188.273438 L 97.488281 194.257812 L 103.46875 194.257812 Z M 100.476562 188.273438 "/>
<g clip-path="url(#clip-19)">
<path fill="none" stroke-width="0.5" stroke-linecap="butt" stroke-linejoin="miter" stroke="rgb(100%, 100%, 100%)" stroke-opacity="1" stroke-miterlimit="10" d="M -0.00182887 3.00128 L -2.998678 -3.000253 L 2.998938 -3.000253 Z M -0.00182887 3.00128 " transform="matrix(0.997141, 0, 0, -0.997141, 100.478386, 191.266137)"/>
</g>
<path fill-rule="nonzero" fill="rgb(58.03833%, 40.391541%, 74.116516%)" fill-opacity="1" d="M 141.390625 189.710938 L 138.398438 195.695312 L 144.382812 195.695312 Z M 141.390625 189.710938 "/>
<g clip-path="url(#clip-20)">
<path fill="none" stroke-width="0.5" stroke-linecap="butt" stroke-linejoin="miter" stroke="rgb(100%, 100%, 100%)" stroke-opacity="1" stroke-miterlimit="10" d="M 0.00012637 3.001098 L -3.00064 -3.000435 L 3.000893 -3.000435 Z M 0.00012637 3.001098 " transform="matrix(0.997141, 0, 0, -0.997141, 141.390499, 192.703456)"/>
</g>
<g clip-path="url(#clip-21)">
<path fill="none" stroke-width="1.5" stroke-linecap="square" stroke-linejoin="round" stroke="rgb(9.01947%, 74.508667%, 81.175232%)" stroke-opacity="1" stroke-miterlimit="10" d="M 59.580648 90.809652 L 100.608098 86.484787 L 141.639465 112.433973 L 182.666914 175.857482 L 192.597649 295.155575 " transform="matrix(0.997141, 0, 0, -0.997141, 0.156093, 293.315661)"/>
</g>
<path fill-rule="nonzero" fill="rgb(9.01947%, 74.508667%, 81.175232%)" fill-opacity="1" d="M 59.566406 199.773438 L 56.574219 205.757812 L 62.558594 205.757812 Z M 59.566406 199.773438 "/>
<g clip-path="url(#clip-22)">
<path fill="none" stroke-width="0.5" stroke-linecap="butt" stroke-linejoin="miter" stroke="rgb(100%, 100%, 100%)" stroke-opacity="1" stroke-miterlimit="10" d="M 0.000133337 2.999828 L -3.000633 -3.001705 L 3.0009 -3.001705 Z M 0.000133337 2.999828 " transform="matrix(0.997141, 0, 0, -0.997141, 59.566273, 202.764689)"/>
</g>
<path fill-rule="nonzero" fill="rgb(9.01947%, 74.508667%, 81.175232%)" fill-opacity="1" d="M 100.476562 204.085938 L 97.488281 210.066406 L 103.46875 210.066406 Z M 100.476562 204.085938 "/>
<g clip-path="url(#clip-23)">
<path fill="none" stroke-width="0.5" stroke-linecap="butt" stroke-linejoin="miter" stroke="rgb(100%, 100%, 100%)" stroke-opacity="1" stroke-miterlimit="10" d="M -0.00182887 2.999284 L -2.998678 -2.998332 L 2.998938 -2.998332 Z M -0.00182887 2.999284 " transform="matrix(0.997141, 0, 0, -0.997141, 100.478386, 207.076647)"/>
</g>
<path fill-rule="nonzero" fill="rgb(9.01947%, 74.508667%, 81.175232%)" fill-opacity="1" d="M 141.390625 178.214844 L 138.398438 184.195312 L 144.382812 184.195312 Z M 141.390625 178.214844 "/>
<g clip-path="url(#clip-24)">
<path fill="none" stroke-width="0.5" stroke-linecap="butt" stroke-linejoin="miter" stroke="rgb(100%, 100%, 100%)" stroke-opacity="1" stroke-miterlimit="10" d="M 0.00012637 2.998632 L -3.00064 -2.998983 L 3.000893 -2.998983 Z M 0.00012637 2.998632 " transform="matrix(0.997141, 0, 0, -0.997141, 141.390499, 181.204903)"/>
</g>
<path fill-rule="nonzero" fill="rgb(9.01947%, 74.508667%, 81.175232%)" fill-opacity="1" d="M 182.300781 114.972656 L 179.3125 120.953125 L 185.292969 120.953125 Z M 182.300781 114.972656 "/>
<g clip-path="url(#clip-25)">
<path fill="none" stroke-width="0.5" stroke-linecap="butt" stroke-linejoin="miter" stroke="rgb(100%, 100%, 100%)" stroke-opacity="1" stroke-miterlimit="10" d="M -0.00183584 2.998781 L -2.998685 -2.998834 L 2.998931 -2.998834 Z M -0.00183584 2.998781 " transform="matrix(0.997141, 0, 0, -0.997141, 182.302612, 117.962864)"/>
</g>
<g clip-path="url(#clip-26)">
<path fill="none" stroke-width="1.5" stroke-linecap="square" stroke-linejoin="round" stroke="rgb(76.861572%, 30.587769%, 32.156372%)" stroke-opacity="1" stroke-miterlimit="10" d="M 59.580648 79.280598 L 100.608098 77.838976 L 126.169456 295.155575 " transform="matrix(0.997141, 0, 0, -0.997141, 0.156093, 293.315661)"/>
</g>
<path fill-rule="nonzero" fill="rgb(76.861572%, 30.587769%, 32.156372%)" fill-opacity="1" d="M 59.566406 211.273438 L 56.574219 217.253906 L 62.558594 217.253906 Z M 59.566406 211.273438 "/>
<g clip-path="url(#clip-27)">
<path fill="none" stroke-width="0.5" stroke-linecap="butt" stroke-linejoin="miter" stroke="rgb(100%, 100%, 100%)" stroke-opacity="1" stroke-miterlimit="10" d="M 0.000133337 2.998376 L -3.000633 -2.999239 L 3.0009 -2.999239 Z M 0.000133337 2.998376 " transform="matrix(0.997141, 0, 0, -0.997141, 59.566273, 214.263242)"/>
</g>
<path fill-rule="nonzero" fill="rgb(76.861572%, 30.587769%, 32.156372%)" fill-opacity="1" d="M 100.476562 212.710938 L 97.488281 218.691406 L 103.46875 218.691406 Z M 100.476562 212.710938 "/>
<g clip-path="url(#clip-28)">
<path fill="none" stroke-width="0.5" stroke-linecap="butt" stroke-linejoin="miter" stroke="rgb(100%, 100%, 100%)" stroke-opacity="1" stroke-miterlimit="10" d="M -0.00182887 2.998195 L -2.998678 -2.99942 L 2.998938 -2.99942 Z M -0.00182887 2.998195 " transform="matrix(0.997141, 0, 0, -0.997141, 100.478386, 215.700561)"/>
</g>
<path fill="none" stroke-width="0.8" stroke-linecap="square" stroke-linejoin="miter" stroke="rgb(0%, 0%, 0%)" stroke-opacity="1" stroke-miterlimit="10" d="M 43.170452 38.919114 L 43.170452 255.13491 " transform="matrix(0.997141, 0, 0, -0.997141, 0.156093, 293.315661)"/>
<path fill="none" stroke-width="0.8" stroke-linecap="square" stroke-linejoin="miter" stroke="rgb(0%, 0%, 0%)" stroke-opacity="1" stroke-miterlimit="10" d="M 322.167294 38.919114 L 322.167294 255.13491 " transform="matrix(0.997141, 0, 0, -0.997141, 0.156093, 293.315661)"/>
<path fill="none" stroke-width="0.8" stroke-linecap="square" stroke-linejoin="miter" stroke="rgb(0%, 0%, 0%)" stroke-opacity="1" stroke-miterlimit="10" d="M 43.170452 38.919114 L 322.167294 38.919114 " transform="matrix(0.997141, 0, 0, -0.997141, 0.156093, 293.315661)"/>
<path fill="none" stroke-width="0.8" stroke-linecap="square" stroke-linejoin="miter" stroke="rgb(0%, 0%, 0%)" stroke-opacity="1" stroke-miterlimit="10" d="M 43.170452 255.13491 L 322.167294 255.13491 " transform="matrix(0.997141, 0, 0, -0.997141, 0.156093, 293.315661)"/>
<path fill-rule="nonzero" fill="rgb(100%, 49.803162%, 5.490112%)" fill-opacity="1" stroke-width="0.5" stroke-linecap="butt" stroke-linejoin="miter" stroke="rgb(100%, 100%, 100%)" stroke-opacity="1" stroke-miterlimit="10" d="M 182.666914 154.350684 L 179.670065 148.349151 L 185.667681 148.349151 Z M 182.666914 154.350684 " transform="matrix(0.997141, 0, 0, -0.997141, 0.156093, 293.315661)"/>
<path fill-rule="nonzero" fill="rgb(100%, 49.803162%, 5.490112%)" fill-opacity="1" stroke-width="0.5" stroke-linecap="butt" stroke-linejoin="miter" stroke="rgb(100%, 100%, 100%)" stroke-opacity="1" stroke-miterlimit="10" d="M 141.639465 124.080551 L 138.638698 118.079018 L 144.640231 118.079018 Z M 141.639465 124.080551 " transform="matrix(0.997141, 0, 0, -0.997141, 0.156093, 293.315661)"/>
<path fill-rule="nonzero" fill="rgb(100%, 49.803162%, 5.490112%)" fill-opacity="1" stroke-width="0.5" stroke-linecap="butt" stroke-linejoin="miter" stroke="rgb(100%, 100%, 100%)" stroke-opacity="1" stroke-miterlimit="10" d="M 141.639465 103.901768 L 138.638698 97.900235 L 144.640231 97.900235 Z M 141.639465 103.901768 " transform="matrix(0.997141, 0, 0, -0.997141, 0.156093, 293.315661)"/>
<path fill-rule="nonzero" fill="rgb(100%, 49.803162%, 5.490112%)" fill-opacity="1" stroke-width="0.5" stroke-linecap="butt" stroke-linejoin="miter" stroke="rgb(100%, 100%, 100%)" stroke-opacity="1" stroke-miterlimit="10" d="M 100.608098 89.485554 L 97.611249 83.487938 L 103.608864 83.487938 Z M 100.608098 89.485554 " transform="matrix(0.997141, 0, 0, -0.997141, 0.156093, 293.315661)"/>
<path fill-rule="nonzero" fill="rgb(100%, 49.803162%, 5.490112%)" fill-opacity="1" stroke-width="0.5" stroke-linecap="butt" stroke-linejoin="miter" stroke="rgb(100%, 100%, 100%)" stroke-opacity="1" stroke-miterlimit="10" d="M 100.608098 80.835825 L 97.611249 74.83821 L 103.608864 74.83821 Z M 100.608098 80.835825 " transform="matrix(0.997141, 0, 0, -0.997141, 0.156093, 293.315661)"/>
<g fill="rgb(0%, 0%, 0%)" fill-opacity="1">
<use xlink:href="#glyph-4-0" x="167.750584" y="17.942308"/>
<use xlink:href="#glyph-4-1" x="174.132287" y="17.942308"/>
<use xlink:href="#glyph-4-2" x="180.035362" y="17.942308"/>
<use xlink:href="#glyph-4-3" x="186.417065" y="17.942308"/>
<use xlink:href="#glyph-4-4" x="190.425573" y="17.942308"/>
</g>
<path fill="none" stroke-width="1.5" stroke-linecap="square" stroke-linejoin="round" stroke="rgb(12.156677%, 46.665955%, 70.587158%)" stroke-opacity="1" stroke-miterlimit="10" d="M 97.638671 266.804992 L 110.440896 266.804992 " transform="matrix(0.997141, 0, 0, -0.997141, 0.156093, 293.315661)"/>
<path fill-rule="nonzero" fill="rgb(12.156677%, 46.665955%, 70.587158%)" fill-opacity="1" stroke-width="0.5" stroke-linecap="butt" stroke-linejoin="miter" stroke="rgb(100%, 100%, 100%)" stroke-opacity="1" stroke-miterlimit="10" d="M 104.039783 269.805758 L 101.039017 263.808143 L 107.04055 263.808143 Z M 104.039783 269.805758 " transform="matrix(0.997141, 0, 0, -0.997141, 0.156093, 293.315661)"/>
<g fill="rgb(0%, 0%, 0%)" fill-opacity="1">
<use xlink:href="#glyph-5-0" x="116.662683" y="30.063804"/>
</g>
<path fill="none" stroke-width="1.5" stroke-linecap="square" stroke-linejoin="round" stroke="rgb(17.254639%, 62.744141%, 17.254639%)" stroke-opacity="1" stroke-miterlimit="10" d="M 131.532445 266.804992 L 144.33467 266.804992 " transform="matrix(0.997141, 0, 0, -0.997141, 0.156093, 293.315661)"/>
<path fill-rule="nonzero" fill="rgb(17.254639%, 62.744141%, 17.254639%)" fill-opacity="1" stroke-width="0.5" stroke-linecap="butt" stroke-linejoin="miter" stroke="rgb(100%, 100%, 100%)" stroke-opacity="1" stroke-miterlimit="10" d="M 137.933557 269.805758 L 134.932791 263.808143 L 140.934324 263.808143 Z M 137.933557 269.805758 " transform="matrix(0.997141, 0, 0, -0.997141, 0.156093, 293.315661)"/>
<g fill="rgb(0%, 0%, 0%)" fill-opacity="1">
<use xlink:href="#glyph-5-1" x="150.459534" y="30.063804"/>
</g>
<path fill="none" stroke-width="1.5" stroke-linecap="square" stroke-linejoin="round" stroke="rgb(58.03833%, 40.391541%, 74.116516%)" stroke-opacity="1" stroke-miterlimit="10" d="M 165.426219 266.804992 L 178.228444 266.804992 " transform="matrix(0.997141, 0, 0, -0.997141, 0.156093, 293.315661)"/>
<path fill-rule="nonzero" fill="rgb(58.03833%, 40.391541%, 74.116516%)" fill-opacity="1" stroke-width="0.5" stroke-linecap="butt" stroke-linejoin="miter" stroke="rgb(100%, 100%, 100%)" stroke-opacity="1" stroke-miterlimit="10" d="M 171.827331 269.805758 L 168.826565 263.808143 L 174.828098 263.808143 Z M 171.827331 269.805758 " transform="matrix(0.997141, 0, 0, -0.997141, 0.156093, 293.315661)"/>
<g fill="rgb(0%, 0%, 0%)" fill-opacity="1">
<use xlink:href="#glyph-5-2" x="184.256385" y="30.063804"/>
</g>
<path fill="none" stroke-width="1.5" stroke-linecap="square" stroke-linejoin="round" stroke="rgb(9.01947%, 74.508667%, 81.175232%)" stroke-opacity="1" stroke-miterlimit="10" d="M 199.319992 266.804992 L 212.122218 266.804992 " transform="matrix(0.997141, 0, 0, -0.997141, 0.156093, 293.315661)"/>
<path fill-rule="nonzero" fill="rgb(9.01947%, 74.508667%, 81.175232%)" fill-opacity="1" stroke-width="0.5" stroke-linecap="butt" stroke-linejoin="miter" stroke="rgb(100%, 100%, 100%)" stroke-opacity="1" stroke-miterlimit="10" d="M 205.721105 269.805758 L 202.720339 263.808143 L 208.721871 263.808143 Z M 205.721105 269.805758 " transform="matrix(0.997141, 0, 0, -0.997141, 0.156093, 293.315661)"/>
<g fill="rgb(0%, 0%, 0%)" fill-opacity="1">
<use xlink:href="#glyph-5-3" x="218.053236" y="30.063804"/>
<use xlink:href="#glyph-5-4" x="223.12669" y="30.063804"/>
</g>
<path fill="none" stroke-width="1.5" stroke-linecap="square" stroke-linejoin="round" stroke="rgb(76.861572%, 30.587769%, 32.156372%)" stroke-opacity="1" stroke-miterlimit="10" d="M 238.310368 266.804992 L 251.108676 266.804992 " transform="matrix(0.997141, 0, 0, -0.997141, 0.156093, 293.315661)"/>
<path fill-rule="nonzero" fill="rgb(76.861572%, 30.587769%, 32.156372%)" fill-opacity="1" stroke-width="0.5" stroke-linecap="butt" stroke-linejoin="miter" stroke="rgb(100%, 100%, 100%)" stroke-opacity="1" stroke-miterlimit="10" d="M 244.707563 269.805758 L 241.710714 263.808143 L 247.70833 263.808143 Z M 244.707563 269.805758 " transform="matrix(0.997141, 0, 0, -0.997141, 0.156093, 293.315661)"/>
<g fill="rgb(0%, 0%, 0%)" fill-opacity="1">
<use xlink:href="#glyph-5-5" x="256.929275" y="30.063804"/>
<use xlink:href="#glyph-5-0" x="262.002729" y="30.063804"/>
</g>
</svg>
